<svg width="24" height="24" viewBox="0 0 24 24" fill="none" xmlns="http://www.w3.org/2000/svg">
<g clip-path="url(#clip0_70_1649)">
<path d="M23.6042 23.377L23.61 23.376V14.8027C23.61 10.6086 22.7071 7.37773 17.8039 7.37773C15.4468 7.37773 13.865 8.67123 13.2192 9.89752H13.151V7.76929H8.50199V23.376H13.3429V15.6482C13.3429 13.6134 13.7286 11.6459 16.2484 11.6459C18.7312 11.6459 18.7682 13.968 18.7682 15.7787V23.377H23.6042ZM0.619233 7.77026H5.46597V23.377H0.619233V7.77026ZM3.04065 0.000488281C1.49098 0.000488281 0.233521 1.25795 0.233521 2.80762C0.233521 4.35729 1.49098 5.64105 3.04065 5.64105C4.59032 5.64105 5.84778 4.35729 5.84778 2.80762C5.84727 2.06328 5.55135 1.34958 5.02502 0.823248C4.4987 0.29692 3.78499 0.00100429 3.04065 0.000488281Z" fill="white"/>
</g>
<defs>
<clipPath id="clip0_70_1649">
<rect width="23.3765" height="23.3765" fill="white" transform="translate(0.233521 0.000488281)"/>
</clipPath>
</defs>
</svg>
